<svg width="230" height="46" viewBox="0 0 230 46" fill="none" xmlns="http://www.w3.org/2000/svg">
<g clip-path="url(#clip0_1197_101084)">
<path d="M41.5 31.6172L41.2529 31.6016C37.9134 31.17 34.5405 30.8448 31.1377 30.6299L21.25 45.5L11.3623 30.6299C7.9595 30.8448 4.58659 31.17 1.24707 31.6016L1 31.6172L21.25 0.5L41.5 31.6172ZM13.2158 25.0918L16.9248 26.9316L21.25 33.4355L25.5752 26.9316L29.2832 25.0918L21.25 12.7461L13.2158 25.0918Z" fill="url(#paint0_linear_1197_101084)"/>
<path d="M210.942 31.0684L217.913 15.0688H221.364L228.29 31.0684H224.313L220.61 22.4058C220.473 22.0705 220.336 21.7354 220.199 21.4001C220.077 21.0648 219.955 20.7219 219.833 20.3716C219.711 20.0212 219.597 19.6783 219.49 19.343C219.383 19.0077 219.284 18.6877 219.193 18.383L219.97 18.3602C219.879 18.7259 219.772 19.0763 219.65 19.4116C219.543 19.7469 219.429 20.082 219.307 20.4173C219.185 20.7373 219.056 21.0648 218.919 21.4001C218.782 21.7354 218.644 22.0783 218.507 22.4286L214.805 31.0684H210.942ZM214.21 28.0971L215.467 25.1714H223.696L224.633 28.0971H214.21Z" fill="white"/>
<path d="M202.04 31.0684L195.252 15.0688H199.297L202.566 23.1601C202.703 23.5258 202.848 23.8915 203 24.2572C203.153 24.6076 203.305 24.9733 203.457 25.3543C203.61 25.7353 203.747 26.1239 203.869 26.52C204.006 26.9161 204.136 27.3353 204.257 27.7771H203.48C203.633 27.2285 203.8 26.7104 203.983 26.2228C204.166 25.72 204.349 25.2247 204.532 24.7372C204.73 24.2496 204.936 23.7315 205.149 23.1829L208.28 15.0688H212.28L205.514 31.0684H202.04Z" fill="white"/>
<path d="M185.42 31.297C184.079 31.297 182.86 31.0913 181.763 30.6799C180.681 30.2685 179.729 29.6895 178.906 28.9428C178.098 28.181 177.474 27.2971 177.032 26.2914C176.59 25.2857 176.369 24.1886 176.369 23.0001C176.369 21.8115 176.59 20.7144 177.032 19.7087C177.474 18.703 178.098 17.8269 178.906 17.0802C179.729 16.3184 180.681 15.7317 181.763 15.3203C182.86 14.9088 184.072 14.7031 185.397 14.7031C186.708 14.7031 187.911 14.9088 189.009 15.3203C190.106 15.7317 191.058 16.3184 191.866 17.0802C192.673 17.8269 193.298 18.703 193.74 19.7087C194.182 20.7144 194.403 21.8115 194.403 23.0001C194.403 24.1733 194.182 25.2704 193.74 26.2914C193.298 27.2971 192.673 28.181 191.866 28.9428C191.058 29.6895 190.106 30.2685 189.009 30.6799C187.911 31.0913 186.715 31.297 185.42 31.297ZM185.397 27.6399C186.129 27.6399 186.799 27.5257 187.409 27.2971C188.033 27.0685 188.574 26.7485 189.031 26.3371C189.489 25.9104 189.839 25.4153 190.083 24.8514C190.327 24.2876 190.449 23.6704 190.449 23.0001C190.449 22.3297 190.327 21.7126 190.083 21.1487C189.839 20.5848 189.489 20.0973 189.031 19.6859C188.574 19.2591 188.033 18.9316 187.409 18.703C186.799 18.4745 186.129 18.3602 185.397 18.3602C184.666 18.3602 183.988 18.4745 183.363 18.703C182.753 18.9316 182.212 19.2591 181.74 19.6859C181.283 20.1126 180.932 20.6077 180.689 21.1715C180.46 21.7354 180.346 22.3448 180.346 23.0001C180.346 23.6704 180.46 24.2876 180.689 24.8514C180.932 25.4153 181.283 25.9104 181.74 26.3371C182.212 26.7485 182.753 27.0685 183.363 27.2971C183.988 27.5257 184.666 27.6399 185.397 27.6399Z" fill="white"/>
<path d="M156.907 31.0684V15.0688H160.473L170.141 26.4971L169.478 26.3828C169.387 25.8496 169.318 25.339 169.272 24.8514C169.227 24.3639 169.181 23.8915 169.135 23.4343C169.105 22.9772 169.074 22.5201 169.044 22.0629C169.029 21.6058 169.021 21.1258 169.021 20.623C169.021 20.1201 169.021 19.5869 169.021 19.023V15.0688H172.792V31.0684H169.181L159.147 19.2744L160.221 19.4344C160.267 19.9677 160.313 20.4477 160.358 20.8744C160.419 21.3011 160.465 21.7048 160.495 22.0858C160.541 22.4515 160.572 22.8247 160.587 23.2058C160.617 23.5715 160.64 23.96 160.655 24.3715C160.671 24.7829 160.678 25.2325 160.678 25.72V31.0684H156.907Z" fill="white"/>
<path d="M136.021 31.297C134.68 31.297 133.461 31.0913 132.364 30.6799C131.282 30.2685 130.33 29.6895 129.507 28.9428C128.699 28.181 128.075 27.2971 127.633 26.2914C127.191 25.2857 126.97 24.1886 126.97 23.0001C126.97 21.8115 127.191 20.7144 127.633 19.7087C128.075 18.703 128.699 17.8269 129.507 17.0802C130.33 16.3184 131.282 15.7317 132.364 15.3203C133.461 14.9088 134.673 14.7031 135.998 14.7031C137.309 14.7031 138.513 14.9088 139.61 15.3203C140.707 15.7317 141.659 16.3184 142.467 17.0802C143.274 17.8269 143.899 18.703 144.341 19.7087C144.783 20.7144 145.004 21.8115 145.004 23.0001C145.004 24.1733 144.783 25.2704 144.341 26.2914C143.899 27.2971 143.274 28.181 142.467 28.9428C141.659 29.6895 140.707 30.2685 139.61 30.6799C138.513 31.0913 137.316 31.297 136.021 31.297ZM135.998 27.6399C136.73 27.6399 137.4 27.5257 138.01 27.2971C138.635 27.0685 139.176 26.7485 139.633 26.3371C140.09 25.9104 140.44 25.4153 140.684 24.8514C140.928 24.2876 141.05 23.6704 141.05 23.0001C141.05 22.3297 140.928 21.7126 140.684 21.1487C140.44 20.5848 140.09 20.0973 139.633 19.6859C139.176 19.2591 138.635 18.9316 138.01 18.703C137.4 18.4745 136.73 18.3602 135.998 18.3602C135.267 18.3602 134.589 18.4745 133.964 18.703C133.355 18.9316 132.814 19.2591 132.341 19.6859C131.884 20.1126 131.534 20.6077 131.29 21.1715C131.061 21.7354 130.947 22.3448 130.947 23.0001C130.947 23.6704 131.061 24.2876 131.29 24.8514C131.534 25.4153 131.884 25.9104 132.341 26.3371C132.814 26.7485 133.355 27.0685 133.964 27.2971C134.589 27.5257 135.267 27.6399 135.998 27.6399Z" fill="white"/>
<path d="M110.254 31.0684V15.0688H118.276C119.404 15.0688 120.394 15.2899 121.248 15.7317C122.101 16.1584 122.764 16.7527 123.236 17.5145C123.709 18.2763 123.945 19.1602 123.945 20.1658C123.945 21.1868 123.693 22.1011 123.191 22.9086C122.703 23.7011 122.025 24.3333 121.156 24.8057C120.303 25.2629 119.343 25.4914 118.276 25.4914H113.957V31.0684H110.254ZM120.265 31.0684L115.648 23.8458L119.671 23.2743L124.745 31.0684H120.265ZM113.957 22.5201H117.888C118.315 22.5201 118.688 22.4286 119.008 22.2458C119.343 22.0629 119.602 21.8115 119.785 21.4915C119.983 21.1715 120.082 20.7983 120.082 20.3716C120.082 19.9601 119.975 19.602 119.762 19.2973C119.564 18.9773 119.282 18.7334 118.916 18.5659C118.566 18.3983 118.147 18.3145 117.659 18.3145H113.957V22.5201Z" fill="white"/>
<path d="M97.6666 31.0684V18.4973H92.2725V15.0688H107.061V18.4973H101.552V31.0684H97.6666Z" fill="white"/>
<path d="M83.3632 31.297C82.2053 31.297 81.1539 31.1752 80.209 30.9313C79.2796 30.6874 78.4415 30.3446 77.6949 29.9028C76.9634 29.4456 76.293 28.9124 75.6835 28.3028L77.8091 25.4686C78.7691 26.4285 79.729 27.0989 80.689 27.48C81.6643 27.8457 82.6318 28.0285 83.5918 28.0285C84.0338 28.0285 84.4603 27.9828 84.8717 27.8914C85.2985 27.7846 85.6413 27.6171 85.9003 27.3885C86.1595 27.16 86.2888 26.8628 86.2888 26.4971C86.2888 26.2532 86.2203 26.0475 86.0831 25.88C85.946 25.6971 85.7556 25.5447 85.5117 25.4229C85.2681 25.301 84.9785 25.1943 84.6432 25.1029C84.3232 25.0114 83.9803 24.9353 83.6146 24.8743C83.2642 24.7982 82.891 24.7296 82.4946 24.6686C81.5347 24.5161 80.6814 24.3029 79.9347 24.0286C79.2033 23.7543 78.5863 23.4115 78.0834 23.0001C77.5806 22.5886 77.192 22.1087 76.9177 21.5601C76.6587 21.0115 76.5292 20.3869 76.5292 19.6859C76.5292 18.9391 76.7044 18.2612 77.0549 17.6516C77.4206 17.027 77.9158 16.5013 78.5406 16.0745C79.1654 15.6327 79.889 15.2974 80.7118 15.0688C81.5347 14.825 82.4032 14.7031 83.3175 14.7031C84.4146 14.7031 85.367 14.8099 86.1746 15.0231C86.9974 15.2364 87.7137 15.5413 88.3231 15.9374C88.9327 16.3184 89.443 16.7678 89.8545 17.2859L87.6831 19.7544C87.3023 19.3734 86.8756 19.0534 86.4031 18.7945C85.9309 18.5355 85.4281 18.3373 84.8946 18.2002C84.3767 18.063 83.851 17.9945 83.3175 17.9945C82.7842 17.9945 82.3118 18.0555 81.9004 18.1773C81.489 18.2841 81.1614 18.4441 80.9175 18.6573C80.6739 18.8706 80.5518 19.1373 80.5518 19.4573C80.5518 19.7316 80.651 19.9677 80.849 20.1658C81.0471 20.3487 81.3061 20.5087 81.6261 20.6458C81.9614 20.783 82.3347 20.8973 82.7461 20.9887C83.1575 21.0648 83.5689 21.1334 83.9803 21.1944C84.8489 21.3315 85.6642 21.5144 86.426 21.743C87.188 21.9562 87.8584 22.2458 88.4374 22.6115C89.0165 22.9619 89.4659 23.419 89.7859 23.9829C90.1212 24.5315 90.2887 25.2171 90.2887 26.04C90.2887 27.1524 89.9841 28.1046 89.3745 28.8971C88.7802 29.6742 87.9651 30.2685 86.9288 30.6799C85.8927 31.0913 84.7042 31.297 83.3632 31.297Z" fill="white"/>
<path d="M57.5 31.0684L64.4713 15.0688H67.9226L74.8481 31.0684H70.8711L67.1683 22.4058C67.0312 22.0705 66.894 21.7354 66.7569 21.4001C66.635 21.0648 66.5131 20.7219 66.3912 20.3716C66.2693 20.0212 66.155 19.6783 66.0484 19.343C65.9417 19.0077 65.8426 18.6877 65.7512 18.383L66.5283 18.3602C66.4369 18.7259 66.3302 19.0763 66.2084 19.4116C66.1017 19.7469 65.9874 20.082 65.8655 20.4173C65.7436 20.7373 65.6141 21.0648 65.4769 21.4001C65.3398 21.7354 65.2027 22.0783 65.0655 22.4286L61.3628 31.0684H57.5ZM60.7685 28.0971L62.0256 25.1714H70.254L71.1911 28.0971H60.7685Z" fill="white"/>
</g>
<defs>
<linearGradient id="paint0_linear_1197_101084" x1="21.25" y1="0.499999" x2="2.0603" y2="45.9477" gradientUnits="userSpaceOnUse">
<stop stop-color="#F8FAFC"/>
<stop offset="1" stop-color="#F1F5F9"/>
</linearGradient>
<clipPath id="clip0_1197_101084">
<rect width="229.29" height="45" fill="white" transform="translate(0 0.5)"/>
</clipPath>
</defs>
</svg>
